<?xml version="1.0" standalone="no"?><!DOCTYPE svg PUBLIC "-//W3C//DTD SVG 1.1//EN" "http://www.w3.org/Graphics/SVG/1.1/DTD/svg11.dtd"><svg class="icon" height="512" viewBox="0 0 1024 1024" version="1.1" xmlns="http://www.w3.org/2000/svg"><path d="M512 0A512 512 0 1 0 1024 512 512 512 0 0 0 512 0z m286.72 689.493333a77.2096 77.2096 0 0 1-109.226667 109.226667L512 621.226667l-177.493333 177.493333a77.2096 77.2096 0 0 1-109.226667-109.226667l177.493333-177.493333-177.493333-177.493333a77.2096 77.2096 0 0 1 109.226667-109.226667l177.493333 177.493333 177.493333-177.493333a77.2096 77.2096 0 0 1 109.226667 109.226667L621.226667 512z" fill="#999999" /></svg>